<?xml version="1.0" encoding="UTF-8"?>
<!-- Generator: Adobe Illustrator 15.1.0, SVG Export Plug-In  -->
<!DOCTYPE svg PUBLIC "-//W3C//DTD SVG 1.1//EN" "http://www.w3.org/Graphics/SVG/1.1/DTD/svg11.dtd" [
	<!ENTITY ns_flows "http://ns.adobe.com/Flows/1.0/">
]>
<svg version="1.1" xmlns="http://www.w3.org/2000/svg" xmlns:xlink="http://www.w3.org/1999/xlink" xmlns:a="http://ns.adobe.com/AdobeSVGViewerExtensions/3.0/" x="0px" y="0px" width="132px" height="120px" viewBox="0 0 132 120" enable-background="new 0 0 132 120" xml:space="preserve">
<defs>
</defs>
<path fill="#7C1231" d="M64.881,60.012C49.804,59.617,24.9,68.865,24.246,79.49c-0.178,2.813,1.044,5.308,2.029,6.755  c16.828,18.526,58.527,16.991,78.548,0.718l-2.963-3.61c-0.906,0.726-1.865,1.434-2.48,1.94c-7.186,5.866-21.758,9.688-34.814,9.865  c-13.896,0.182-29.148-3.772-28.863-14.642c0.213-11.582,16.394-13.649,23.271-14.798c9.698-1.626,21.379,0.366,29.154,3.775  c3.273,1.474,6.336,3.276,8.682,5.426c0.73,0.665,1.355,1.376,1.953,2.101l4.59-2.523c-2.064-3.74-4.225-7.512-6.354-11.088  c-0.313-0.508-0.443-0.751-0.93-0.395c-0.977,0.684-2.377,1.383-3.082,2.076c-0.5,0.253-0.686,0.303-1.197,0.076  C86.7,63.119,76.856,60.124,64.881,60.012"/>
<polygon fill="#7C1231" points="58.187,74.009 55.024,74.009 55.024,86.348 62.119,86.348 62.119,83.465 58.187,83.465 "/>
<path fill="#7C1231" d="M67.694,80.91c-0.034,0.116-0.088,0.327-0.165,0.638c-0.076,0.303-0.146,0.635-0.236,1.016  c-0.104-0.468-0.188-0.845-0.254-1.125c-0.069-0.271-0.114-0.451-0.134-0.527l-2.324-6.901h-3.354l4.861,12.339h2.403l4.86-12.339  h-3.349L67.694,80.91z"/>
<path fill="#7C1231" d="M49.476,80.014c0,0.883-0.021,1.508-0.057,1.898c-0.046,0.385-0.121,0.701-0.216,0.962  c-0.131,0.313-0.342,0.551-0.641,0.722c-0.301,0.168-0.666,0.256-1.101,0.256c-0.428,0-0.804-0.088-1.103-0.256  c-0.297-0.17-0.512-0.406-0.629-0.722c-0.105-0.261-0.18-0.577-0.225-0.962c-0.035-0.391-0.057-1.016-0.057-1.898v-6.005h-3.151  v6.525c0,1.348,0.082,2.35,0.235,2.983c0.156,0.65,0.408,1.202,0.765,1.659c0.407,0.496,0.951,0.865,1.64,1.123  c0.693,0.253,1.533,0.374,2.524,0.374s1.828-0.119,2.522-0.374c0.688-0.257,1.23-0.627,1.63-1.123  c0.364-0.457,0.62-1.008,0.771-1.659c0.161-0.635,0.234-1.636,0.234-2.983v-6.525h-3.146v6.005H49.476z"/>
<polygon fill="#7C1231" points="74.306,86.348 81.417,86.348 81.417,83.583 77.39,83.583 77.39,81.5 81.19,81.5 81.19,78.856   77.39,78.856 77.39,76.709 81.417,76.709 81.417,74.009 74.306,74.009 "/>
<path fill="#7C1231" d="M89.544,81.369c0.844-0.194,1.494-0.584,1.932-1.181c0.441-0.606,0.662-1.381,0.662-2.336  c0-0.627-0.113-1.201-0.338-1.729c-0.229-0.521-0.551-0.958-0.965-1.286c-0.363-0.293-0.816-0.511-1.322-0.638  c-0.514-0.118-1.408-0.19-2.697-0.19h-3.301v12.339h2.957v-4.834l2.658,4.834h3.578L89.544,81.369z M88.843,79.104  c-0.08,0.205-0.197,0.369-0.354,0.494c-0.309,0.26-0.797,0.389-1.461,0.389h-0.58v-3.35h0.021v-0.039h0.627  c0.693,0,1.188,0.127,1.475,0.387c0.299,0.265,0.449,0.701,0.449,1.322C89.021,78.624,88.956,78.891,88.843,79.104"/>
<path fill="#7C1231" d="M8.756,117.247l-1.033,2.702c-0.072-0.038-0.222-0.051-0.442-0.043l-1.63,0.084  c-1.549,0.078-2.854-0.324-3.918-1.209C0.575,117.82,0,116.545,0,114.955c0-1.346,0.441-2.387,1.328-3.12  c0.842-0.697,1.82-1.048,2.939-1.048c0.138,0,0.271,0.004,0.404,0.016l1.907,0.158c0.258,0,0.435-0.094,0.524-0.281l0.617,2.538  l-0.107,0.04c-0.243-0.563-0.641-1.001-1.194-1.314c-0.521-0.293-1.103-0.438-1.747-0.438c-0.949,0-1.686,0.296-2.203,0.896  c-0.574,0.66-0.859,1.481-0.859,2.459c0,1.207,0.365,2.238,1.104,3.088c0.771,0.897,1.75,1.344,2.938,1.344  c1.337,0,2.324-0.698,2.973-2.096L8.756,117.247z"/>
<path fill="#7C1231" d="M10.098,117.074v-4.353c0-0.5-0.035-0.858-0.104-1.073c-0.126-0.342-0.386-0.523-0.767-0.554l-0.014-0.123  h3.236v0.122c-0.387,0.01-0.637,0.158-0.752,0.439c-0.078,0.199-0.119,0.563-0.119,1.104v4.329c0,1.501,0.725,2.253,2.175,2.253  c0.831,0,1.464-0.214,1.894-0.646c0.396-0.394,0.59-0.946,0.59-1.66v-4.19c0-0.571-0.033-0.962-0.105-1.157  c-0.123-0.319-0.378-0.479-0.764-0.47v-0.123h2.617v0.122c-0.385,0.044-0.635,0.223-0.754,0.539  c-0.078,0.193-0.119,0.529-0.119,1.004v3.723c0,1.354-0.348,2.318-1.046,2.899c-0.563,0.487-1.396,0.729-2.498,0.729  c-0.977,0-1.81-0.223-2.498-0.657c-0.395-0.25-0.664-0.584-0.805-0.994C10.152,118.04,10.098,117.623,10.098,117.074"/>
<path fill="#7C1231" d="M20.843,112.638v5.633c0,0.615,0.331,0.924,0.995,0.924c0.853,0,1.616-0.238,2.296-0.727  c0.646-0.457,1.155-1.082,1.533-1.879l0.119,0.053l-1.154,3.348c-0.088-0.117-0.349-0.176-0.779-0.176h-5.357v-0.123  c0.385-0.054,0.641-0.229,0.768-0.537c0.07-0.19,0.105-0.528,0.105-1.004v-5.416c0-0.49-0.037-0.844-0.105-1.045  c-0.127-0.343-0.383-0.539-0.768-0.594v-0.122h3.227v0.122c-0.386,0.035-0.64,0.212-0.756,0.521  C20.884,111.807,20.843,112.15,20.843,112.638"/>
<path fill="#7C1231" d="M30.179,118.417l2.055-5.724c0.162-0.438,0.242-0.758,0.242-0.965c0-0.377-0.201-0.59-0.604-0.634v-0.124  h2.395v0.124c-0.289,0.035-0.523,0.212-0.711,0.521c-0.045,0.102-0.162,0.392-0.353,0.875l-2.312,6.14  c-0.115,0.295-0.176,0.517-0.176,0.655c0,0.229,0.141,0.369,0.42,0.402v0.121h-2.58v-0.121c0.275-0.041,0.416-0.187,0.416-0.431  c0-0.149-0.063-0.403-0.188-0.762l-2.071-5.953c-0.159-0.464-0.271-0.763-0.334-0.89c-0.188-0.328-0.416-0.52-0.687-0.563v-0.121  h2.941v0.124c-0.375,0.08-0.563,0.288-0.563,0.619c0,0.133,0.085,0.464,0.254,0.99L30.179,118.417z"/>
<path fill="#7C1231" d="M41.355,110.814l0.604,2.7l-0.107,0.041c-0.27-0.645-0.729-1.144-1.388-1.493  c-0.587-0.313-1.255-0.471-1.998-0.471c-0.483,0-0.81,0.069-0.979,0.209c-0.17,0.137-0.256,0.445-0.256,0.922v0.766h1.035  c0.512,0,0.842-0.023,0.992-0.066c0.342-0.109,0.508-0.354,0.5-0.742l0.119-0.04l0.523,3.015l-0.108,0.037  c-0.214-0.717-0.548-1.174-1.007-1.369c-0.305-0.135-0.885-0.2-1.73-0.2H37.23v3.6c0,0.591,0.063,0.97,0.189,1.128  c0.169,0.233,0.568,0.348,1.191,0.348c1.836,0,3.184-0.858,4.033-2.59l0.133,0.039l-1.141,3.346  c-0.08-0.117-0.281-0.174-0.593-0.174h-6.166v-0.125c0.386-0.061,0.644-0.246,0.767-0.547c0.071-0.188,0.106-0.521,0.106-0.994  v-5.416c0-0.479-0.036-0.83-0.106-1.045c-0.123-0.332-0.381-0.526-0.767-0.594v-0.121h5.749  C40.996,110.973,41.236,110.92,41.355,110.814"/>
<path fill="#7C1231" d="M43.207,110.973h5.2c0.706,0,1.209,0.114,1.518,0.339c0.275,0.213,0.416,0.563,0.416,1.033  c0,0.788-0.646,1.525-1.933,2.217c0.886,0.992,1.667,2.33,2.348,4c0.144,0.36,0.249,0.592,0.322,0.698  c0.161,0.244,0.368,0.39,0.616,0.431v0.123h-2.832v-0.123c0.33-0.061,0.498-0.232,0.498-0.521c0-0.229-0.088-0.562-0.258-0.979  c-0.151-0.367-0.308-0.668-0.467-0.901l-1.521-2.179l-1.561,0.543v2.399c0,0.53,0.039,0.896,0.119,1.093  c0.117,0.313,0.371,0.492,0.756,0.547v0.121h-3.227v-0.123c0.389-0.061,0.643-0.246,0.768-0.547c0.07-0.195,0.105-0.535,0.105-1.009  v-5.401c0-0.49-0.035-0.844-0.105-1.043c-0.125-0.345-0.379-0.541-0.768-0.596v-0.122H43.207z M45.556,112.722v2.295  c0.762-0.214,1.435-0.488,2.02-0.815c0.865-0.483,1.303-1.001,1.303-1.544c0-0.439-0.17-0.74-0.512-0.9  c-0.232-0.105-0.602-0.163-1.104-0.163c-0.857,0-1.375,0.103-1.545,0.298C45.611,112.014,45.556,112.289,45.556,112.722"/>
<path fill="#7C1231" d="M58.521,115.879l-0.781,2.133c-0.145,0.398-0.215,0.716-0.215,0.955c0,0.206,0.07,0.374,0.215,0.503  c0.145,0.133,0.316,0.205,0.523,0.223v0.121h-2.742v-0.123c0.313-0.061,0.549-0.203,0.701-0.431  c0.188-0.269,0.387-0.687,0.603-1.249l2.163-5.706c0.133-0.354,0.201-0.616,0.201-0.78c0-0.239-0.137-0.386-0.414-0.43v-0.122h2.979  v0.122c-0.259,0.071-0.389,0.235-0.389,0.481c0,0.116,0.04,0.294,0.124,0.521l2.293,6.611c0.104,0.313,0.197,0.521,0.271,0.632  c0.12,0.169,0.307,0.286,0.549,0.348v0.123h-3.051v-0.123c0.439-0.098,0.657-0.408,0.657-0.938c0-0.665-0.345-1.289-1.03-1.883  C60.425,116.228,59.54,115.894,58.521,115.879 M61.435,116.283l-1.49-4.303l-1.223,3.227  C59.823,115.187,60.728,115.548,61.435,116.283"/>
<path fill="#7C1231" d="M73.769,117.247l-1.035,2.702c-0.07-0.038-0.221-0.051-0.44-0.043l-1.627,0.084  c-1.549,0.078-2.858-0.324-3.923-1.209c-1.155-0.961-1.732-2.235-1.732-3.826c0-1.346,0.444-2.387,1.328-3.12  c0.846-0.697,1.825-1.048,2.942-1.048c0.137,0,0.271,0.004,0.403,0.016l1.908,0.158c0.26,0,0.432-0.094,0.522-0.281l0.616,2.538  l-0.105,0.04c-0.24-0.563-0.643-1.001-1.193-1.314c-0.521-0.293-1.104-0.438-1.748-0.438c-0.947,0-1.685,0.296-2.203,0.896  c-0.571,0.66-0.858,1.481-0.858,2.459c0,1.207,0.368,2.238,1.103,3.088c0.771,0.897,1.752,1.344,2.942,1.344  c1.332,0,2.323-0.698,2.97-2.096L73.769,117.247z"/>
<path fill="#7C1231" d="M76.793,115.879l-0.78,2.133c-0.146,0.398-0.216,0.716-0.216,0.955c0,0.206,0.069,0.374,0.216,0.503  c0.145,0.133,0.314,0.205,0.522,0.223v0.121h-2.742v-0.123c0.313-0.061,0.55-0.203,0.698-0.431c0.189-0.269,0.393-0.687,0.604-1.249  l2.164-5.706c0.133-0.354,0.2-0.616,0.2-0.78c0-0.239-0.14-0.386-0.414-0.43v-0.122h2.979v0.122  c-0.26,0.071-0.389,0.235-0.389,0.481c0,0.116,0.037,0.294,0.117,0.521l2.299,6.611c0.105,0.313,0.195,0.521,0.271,0.632  c0.126,0.169,0.307,0.286,0.552,0.348v0.123h-3.049v-0.123c0.438-0.098,0.654-0.408,0.654-0.938c0-0.665-0.344-1.289-1.03-1.883  C78.694,116.228,77.81,115.894,76.793,115.879 M79.707,116.283l-1.492-4.303l-1.223,3.227  C78.095,115.187,78.997,115.548,79.707,116.283"/>
<path fill="#7C1231" d="M83.251,110.973h3.195c1.594,0,2.85,0.388,3.762,1.159c0.52,0.438,0.928,0.971,1.223,1.602  c0.295,0.634,0.443,1.283,0.443,1.955c0,1.353-0.475,2.424-1.424,3.211c-0.475,0.396-1.023,0.658-1.65,0.791  c-0.414,0.082-1.029,0.121-1.854,0.121h-3.693v-0.121c0.387-0.061,0.639-0.246,0.762-0.547c0.072-0.188,0.109-0.521,0.109-0.994  v-5.416c0-0.49-0.037-0.844-0.109-1.045c-0.123-0.343-0.375-0.539-0.762-0.594L83.251,110.973L83.251,110.973z M85.601,113.004v4.46  c0,0.688,0.059,1.122,0.164,1.303c0.17,0.287,0.576,0.428,1.225,0.428c1.047,0,1.854-0.308,2.43-0.924  c0.566-0.592,0.846-1.42,0.846-2.484c0-1.172-0.316-2.147-0.949-2.932c-0.674-0.84-1.574-1.263-2.703-1.263  c-0.482,0-0.781,0.126-0.9,0.377C85.638,112.113,85.601,112.456,85.601,113.004"/>
<path fill="#7C1231" d="M99.384,110.814l0.604,2.7l-0.107,0.041c-0.27-0.645-0.729-1.144-1.387-1.493  c-0.586-0.313-1.26-0.471-1.998-0.471c-0.484,0-0.813,0.069-0.98,0.209c-0.17,0.137-0.254,0.445-0.254,0.922v0.766h1.033  c0.514,0,0.836-0.023,0.994-0.066c0.338-0.109,0.504-0.354,0.496-0.742l0.123-0.04l0.521,3.015l-0.105,0.037  c-0.215-0.717-0.553-1.174-1.006-1.369c-0.309-0.135-0.887-0.2-1.734-0.2h-0.322v3.6c0,0.591,0.063,0.97,0.188,1.128  c0.17,0.233,0.57,0.348,1.195,0.348c1.836,0,3.178-0.858,4.027-2.59l0.137,0.039l-1.146,3.348c-0.078-0.118-0.273-0.176-0.59-0.176  h-6.164v-0.125c0.385-0.061,0.645-0.246,0.768-0.547c0.068-0.188,0.107-0.521,0.107-0.994v-5.416c0-0.479-0.039-0.83-0.107-1.045  c-0.123-0.332-0.383-0.526-0.768-0.594v-0.121h5.75C99.024,110.973,99.267,110.92,99.384,110.814"/>
<path fill="#7C1231" d="M105.724,116.67l-2.715-4.769v6.149c0,0.513,0.047,0.87,0.119,1.076c0.115,0.339,0.367,0.528,0.756,0.563  v0.123h-2.621v-0.125c0.385-0.054,0.641-0.229,0.77-0.537c0.068-0.19,0.105-0.528,0.105-1.004v-5.416  c0-0.49-0.037-0.844-0.105-1.045c-0.129-0.343-0.385-0.537-0.77-0.594v-0.122h3.396v0.122c-0.152,0.035-0.227,0.124-0.227,0.27  c0,0.117,0.057,0.285,0.174,0.498l1.545,2.819l1.529-2.485c0.232-0.375,0.352-0.646,0.352-0.817c0-0.146-0.086-0.237-0.256-0.281  v-0.123h3.236v0.122c-0.389,0.063-0.641,0.248-0.75,0.553c-0.084,0.188-0.123,0.52-0.123,0.99v5.414  c0,0.493,0.039,0.844,0.123,1.049c0.109,0.328,0.361,0.529,0.75,0.59v0.123h-3.227v-0.123c0.391-0.041,0.643-0.218,0.771-0.521  c0.068-0.191,0.104-0.535,0.104-1.02v-6.248L105.724,116.67z"/>
<path fill="#7C1231" d="M114.399,112.656v5.396c0,0.493,0.039,0.845,0.119,1.048c0.115,0.344,0.369,0.537,0.752,0.592v0.123h-3.227  v-0.123c0.389-0.041,0.645-0.225,0.77-0.537c0.07-0.188,0.105-0.521,0.105-1.004v-5.416c0-0.491-0.035-0.845-0.105-1.045  c-0.125-0.344-0.381-0.539-0.77-0.595v-0.122h3.227v0.122c-0.383,0.063-0.637,0.248-0.752,0.554  C114.438,111.844,114.399,112.178,114.399,112.656"/>
<path fill="#7C1231" d="M122.754,110.814l0.607,2.7l-0.114,0.041c-0.267-0.645-0.728-1.144-1.383-1.493  c-0.587-0.313-1.259-0.471-1.999-0.471c-0.482,0-0.813,0.069-0.98,0.209c-0.172,0.137-0.254,0.445-0.254,0.922v0.766h1.031  c0.51,0,0.841-0.023,0.994-0.066c0.34-0.109,0.508-0.354,0.497-0.742l0.124-0.04l0.521,3.015l-0.107,0.037  c-0.213-0.717-0.553-1.174-1.008-1.369c-0.307-0.135-0.883-0.2-1.732-0.2h-0.318v3.6c0,0.591,0.059,0.97,0.188,1.128  c0.17,0.233,0.565,0.348,1.192,0.348c1.838,0,3.181-0.858,4.03-2.59l0.134,0.039l-1.145,3.348c-0.079-0.118-0.273-0.176-0.592-0.176  h-6.161v-0.125c0.384-0.061,0.642-0.246,0.764-0.547c0.071-0.188,0.106-0.521,0.106-0.994v-5.416c0-0.479-0.035-0.83-0.106-1.045  c-0.122-0.332-0.38-0.526-0.764-0.594v-0.121h5.749C122.395,110.973,122.635,110.92,122.754,110.814"/>
<path fill="#7C1231" d="M130.516,110.853l0.537,2.674l-0.104,0.027c-0.207-0.609-0.59-1.104-1.146-1.486  c-0.564-0.375-1.171-0.564-1.82-0.564c-0.403,0-0.766,0.084-1.088,0.254c-0.404,0.206-0.604,0.49-0.604,0.857  c0,0.275,0.169,0.506,0.513,0.688c0.141,0.071,0.432,0.176,0.871,0.311l1.883,0.563c0.803,0.24,1.379,0.521,1.715,0.846  c0.483,0.457,0.729,1.053,0.729,1.784c0,0.942-0.398,1.72-1.193,2.326c-0.746,0.572-1.613,0.858-2.608,0.858  c-0.341,0-0.779-0.069-1.327-0.215c-0.548-0.145-0.915-0.217-1.104-0.217c-0.16,0-0.313,0.079-0.457,0.242l-0.778-3.357l0.12-0.041  c0.25,0.821,0.671,1.485,1.263,1.986c0.63,0.549,1.358,0.82,2.19,0.82c0.72,0,1.322-0.182,1.813-0.543  c0.49-0.364,0.735-0.803,0.735-1.313c0-0.519-0.215-0.924-0.645-1.209c-0.24-0.171-0.686-0.354-1.328-0.548l-1.787-0.556  c-0.617-0.188-1.074-0.414-1.371-0.686c-0.385-0.342-0.573-0.791-0.573-1.354c0-0.732,0.345-1.305,1.03-1.707  c0.572-0.329,1.254-0.497,2.043-0.497c0.356,0,0.742,0.051,1.154,0.146c0.41,0.103,0.698,0.147,0.858,0.147  C130.223,111.095,130.383,111.017,130.516,110.853"/>
<path fill="#FFFFFF" d="M64.881,0.012C49.804-0.383,24.9,8.865,24.246,19.49c-0.178,2.813,1.044,5.308,2.029,6.755  c16.828,18.526,58.527,16.991,78.548,0.718l-2.963-3.61c-0.906,0.726-1.865,1.434-2.48,1.94c-7.186,5.866-21.758,9.688-34.814,9.865  c-13.896,0.182-29.148-3.772-28.863-14.642C35.916,8.934,52.097,6.867,58.974,5.718c9.698-1.626,21.379,0.366,29.154,3.775  c3.273,1.474,6.336,3.276,8.682,5.426c0.73,0.665,1.355,1.376,1.953,2.101l4.59-2.523c-2.064-3.74-4.225-7.512-6.354-11.088  c-0.313-0.508-0.443-0.751-0.93-0.395c-0.977,0.684-2.377,1.383-3.082,2.076c-0.5,0.253-0.686,0.303-1.197,0.076  C86.7,3.119,76.856,0.124,64.881,0.012"/>
<polygon fill="#FFFFFF" points="58.187,14.009 55.024,14.009 55.024,26.348 62.119,26.348 62.119,23.465 58.187,23.465 "/>
<path fill="#FFFFFF" d="M67.694,20.91c-0.034,0.116-0.088,0.327-0.165,0.638c-0.076,0.303-0.146,0.635-0.236,1.016  c-0.104-0.468-0.188-0.845-0.254-1.125c-0.069-0.271-0.114-0.451-0.134-0.527l-2.324-6.901h-3.354l4.861,12.339h2.403l4.86-12.339  h-3.349L67.694,20.91z"/>
<path fill="#FFFFFF" d="M49.476,20.014c0,0.883-0.021,1.508-0.057,1.898c-0.046,0.385-0.121,0.701-0.216,0.962  c-0.131,0.313-0.342,0.551-0.641,0.722c-0.301,0.168-0.666,0.256-1.101,0.256c-0.428,0-0.804-0.088-1.103-0.256  c-0.297-0.17-0.512-0.406-0.629-0.722c-0.105-0.261-0.18-0.577-0.225-0.962c-0.035-0.391-0.057-1.016-0.057-1.898v-6.005h-3.151  v6.525c0,1.348,0.082,2.35,0.235,2.983c0.156,0.65,0.408,1.202,0.765,1.659c0.407,0.496,0.951,0.865,1.64,1.123  c0.693,0.253,1.533,0.374,2.524,0.374s1.828-0.119,2.522-0.374c0.688-0.257,1.23-0.627,1.63-1.123  c0.364-0.457,0.62-1.008,0.771-1.659c0.161-0.635,0.234-1.636,0.234-2.983v-6.525h-3.146v6.005H49.476z"/>
<polygon fill="#FFFFFF" points="74.306,26.348 81.417,26.348 81.417,23.583 77.39,23.583 77.39,21.5 81.19,21.5 81.19,18.856   77.39,18.856 77.39,16.709 81.417,16.709 81.417,14.009 74.306,14.009 "/>
<path fill="#FFFFFF" d="M89.544,21.369c0.844-0.194,1.494-0.584,1.932-1.181c0.441-0.606,0.662-1.381,0.662-2.336  c0-0.627-0.113-1.201-0.338-1.729c-0.229-0.521-0.551-0.958-0.965-1.286c-0.363-0.293-0.816-0.511-1.322-0.638  c-0.514-0.118-1.408-0.19-2.697-0.19h-3.301v12.339h2.957v-4.834l2.658,4.834h3.578L89.544,21.369z M88.843,19.104  c-0.08,0.205-0.197,0.369-0.354,0.494c-0.309,0.26-0.797,0.389-1.461,0.389h-0.58v-3.35h0.021v-0.039h0.627  c0.693,0,1.188,0.127,1.475,0.387c0.299,0.265,0.449,0.701,0.449,1.322C89.021,18.624,88.956,18.891,88.843,19.104"/>
<path fill="#FFFFFF" d="M8.756,57.247l-1.033,2.702c-0.072-0.038-0.222-0.051-0.442-0.043L5.65,59.99  c-1.549,0.078-2.854-0.324-3.918-1.209C0.575,57.82,0,56.545,0,54.955c0-1.346,0.441-2.387,1.328-3.12  c0.842-0.697,1.82-1.048,2.939-1.048c0.138,0,0.271,0.004,0.404,0.016l1.907,0.158c0.258,0,0.435-0.094,0.524-0.281l0.617,2.538  l-0.107,0.04c-0.243-0.563-0.641-1.001-1.194-1.314c-0.521-0.293-1.103-0.438-1.747-0.438c-0.949,0-1.686,0.296-2.203,0.896  c-0.574,0.66-0.859,1.481-0.859,2.459c0,1.207,0.365,2.238,1.104,3.088c0.771,0.897,1.75,1.344,2.938,1.344  c1.337,0,2.324-0.698,2.973-2.096L8.756,57.247z"/>
<path fill="#FFFFFF" d="M10.098,57.074v-4.353c0-0.5-0.035-0.858-0.104-1.073c-0.126-0.342-0.386-0.523-0.767-0.554l-0.014-0.123  h3.236v0.122c-0.387,0.01-0.637,0.158-0.752,0.439c-0.078,0.199-0.119,0.563-0.119,1.104v4.329c0,1.501,0.725,2.253,2.175,2.253  c0.831,0,1.464-0.214,1.894-0.646c0.396-0.394,0.59-0.946,0.59-1.66v-4.19c0-0.571-0.033-0.962-0.105-1.157  c-0.123-0.319-0.378-0.479-0.764-0.47v-0.123h2.617v0.122c-0.385,0.044-0.635,0.223-0.754,0.539  c-0.078,0.193-0.119,0.529-0.119,1.004v3.723c0,1.354-0.348,2.318-1.046,2.899c-0.563,0.487-1.396,0.729-2.498,0.729  c-0.977,0-1.81-0.223-2.498-0.657c-0.395-0.25-0.664-0.584-0.805-0.994C10.152,58.04,10.098,57.623,10.098,57.074"/>
<path fill="#FFFFFF" d="M20.843,52.638v5.633c0,0.615,0.331,0.924,0.995,0.924c0.853,0,1.616-0.238,2.296-0.727  c0.646-0.457,1.155-1.082,1.533-1.879l0.119,0.053l-1.154,3.348c-0.088-0.117-0.349-0.176-0.779-0.176h-5.357v-0.123  c0.385-0.054,0.641-0.229,0.768-0.537c0.07-0.19,0.105-0.528,0.105-1.004v-5.416c0-0.49-0.037-0.844-0.105-1.045  c-0.127-0.343-0.383-0.539-0.768-0.594v-0.122h3.227v0.122c-0.386,0.035-0.64,0.212-0.756,0.521  C20.884,51.807,20.843,52.15,20.843,52.638"/>
<path fill="#FFFFFF" d="M30.179,58.417l2.055-5.724c0.162-0.438,0.242-0.758,0.242-0.965c0-0.377-0.201-0.59-0.604-0.634V50.97  h2.395v0.124c-0.289,0.035-0.523,0.212-0.711,0.521c-0.045,0.102-0.162,0.392-0.353,0.875l-2.312,6.14  c-0.115,0.295-0.176,0.517-0.176,0.655c0,0.229,0.141,0.369,0.42,0.402v0.121h-2.58v-0.121c0.275-0.041,0.416-0.187,0.416-0.431  c0-0.149-0.063-0.403-0.188-0.762l-2.071-5.953c-0.159-0.464-0.271-0.763-0.334-0.89c-0.188-0.328-0.416-0.52-0.687-0.563v-0.121  h2.941v0.124c-0.375,0.08-0.563,0.288-0.563,0.619c0,0.133,0.085,0.464,0.254,0.99L30.179,58.417z"/>
<path fill="#FFFFFF" d="M41.355,50.814l0.604,2.7l-0.107,0.041c-0.27-0.645-0.729-1.144-1.388-1.493  c-0.587-0.313-1.255-0.471-1.998-0.471c-0.483,0-0.81,0.069-0.979,0.209c-0.17,0.137-0.256,0.445-0.256,0.922v0.766h1.035  c0.512,0,0.842-0.023,0.992-0.066c0.342-0.109,0.508-0.354,0.5-0.742l0.119-0.04l0.523,3.015l-0.108,0.037  c-0.214-0.717-0.548-1.174-1.007-1.369c-0.305-0.135-0.885-0.2-1.73-0.2H37.23v3.6c0,0.591,0.063,0.97,0.189,1.128  c0.169,0.233,0.568,0.348,1.191,0.348c1.836,0,3.184-0.858,4.033-2.59l0.133,0.039l-1.141,3.346  c-0.08-0.117-0.281-0.174-0.593-0.174h-6.166v-0.125c0.386-0.061,0.644-0.246,0.767-0.547c0.071-0.188,0.106-0.521,0.106-0.994  v-5.416c0-0.479-0.036-0.83-0.106-1.045c-0.123-0.332-0.381-0.526-0.767-0.594v-0.121h5.749  C40.996,50.973,41.236,50.92,41.355,50.814"/>
<path fill="#FFFFFF" d="M43.207,50.973h5.2c0.706,0,1.209,0.114,1.518,0.339c0.275,0.213,0.416,0.563,0.416,1.033  c0,0.788-0.646,1.525-1.933,2.217c0.886,0.992,1.667,2.33,2.348,4c0.144,0.36,0.249,0.592,0.322,0.698  c0.161,0.244,0.368,0.39,0.616,0.431v0.123h-2.832v-0.123c0.33-0.061,0.498-0.232,0.498-0.521c0-0.229-0.088-0.562-0.258-0.979  c-0.151-0.367-0.308-0.668-0.467-0.901l-1.521-2.179l-1.561,0.543v2.399c0,0.53,0.039,0.896,0.119,1.093  c0.117,0.313,0.371,0.492,0.756,0.547v0.121h-3.227v-0.123c0.389-0.061,0.643-0.246,0.768-0.547c0.07-0.195,0.105-0.535,0.105-1.009  v-5.401c0-0.49-0.035-0.844-0.105-1.043c-0.125-0.345-0.379-0.541-0.768-0.596v-0.122H43.207z M45.556,52.722v2.295  c0.762-0.214,1.435-0.488,2.02-0.815c0.865-0.483,1.303-1.001,1.303-1.544c0-0.439-0.17-0.74-0.512-0.9  c-0.232-0.105-0.602-0.163-1.104-0.163c-0.857,0-1.375,0.103-1.545,0.298C45.611,52.014,45.556,52.289,45.556,52.722"/>
<path fill="#FFFFFF" d="M58.521,55.879l-0.781,2.133c-0.145,0.398-0.215,0.716-0.215,0.955c0,0.206,0.07,0.374,0.215,0.503  c0.145,0.133,0.316,0.205,0.523,0.223v0.121h-2.742v-0.123c0.313-0.061,0.549-0.203,0.701-0.431  c0.188-0.269,0.387-0.687,0.603-1.249l2.163-5.706c0.133-0.354,0.201-0.616,0.201-0.78c0-0.239-0.137-0.386-0.414-0.43v-0.122h2.979  v0.122c-0.259,0.071-0.389,0.235-0.389,0.481c0,0.116,0.04,0.294,0.124,0.521l2.293,6.611c0.104,0.313,0.197,0.521,0.271,0.632  c0.12,0.169,0.307,0.286,0.549,0.348v0.123h-3.051v-0.123c0.439-0.098,0.657-0.408,0.657-0.938c0-0.665-0.345-1.289-1.03-1.883  C60.425,56.228,59.54,55.894,58.521,55.879 M61.435,56.283l-1.49-4.303l-1.223,3.227C59.823,55.187,60.728,55.548,61.435,56.283"/>
<path fill="#FFFFFF" d="M73.769,57.247l-1.035,2.702c-0.07-0.038-0.221-0.051-0.44-0.043l-1.627,0.084  c-1.549,0.078-2.858-0.324-3.923-1.209c-1.155-0.961-1.732-2.235-1.732-3.826c0-1.346,0.444-2.387,1.328-3.12  c0.846-0.697,1.825-1.048,2.942-1.048c0.137,0,0.271,0.004,0.403,0.016l1.908,0.158c0.26,0,0.432-0.094,0.522-0.281l0.616,2.538  l-0.105,0.04c-0.24-0.563-0.643-1.001-1.193-1.314c-0.521-0.293-1.104-0.438-1.748-0.438c-0.947,0-1.685,0.296-2.203,0.896  c-0.571,0.66-0.858,1.481-0.858,2.459c0,1.207,0.368,2.238,1.103,3.088c0.771,0.897,1.752,1.344,2.942,1.344  c1.332,0,2.323-0.698,2.97-2.096L73.769,57.247z"/>
<path fill="#FFFFFF" d="M76.793,55.879l-0.78,2.133c-0.146,0.398-0.216,0.716-0.216,0.955c0,0.206,0.069,0.374,0.216,0.503  c0.145,0.133,0.314,0.205,0.522,0.223v0.121h-2.742v-0.123c0.313-0.061,0.55-0.203,0.698-0.431c0.189-0.269,0.393-0.687,0.604-1.249  l2.164-5.706c0.133-0.354,0.2-0.616,0.2-0.78c0-0.239-0.14-0.386-0.414-0.43v-0.122h2.979v0.122  c-0.26,0.071-0.389,0.235-0.389,0.481c0,0.116,0.037,0.294,0.117,0.521l2.299,6.611c0.105,0.313,0.195,0.521,0.271,0.632  c0.126,0.169,0.307,0.286,0.552,0.348v0.123h-3.049v-0.123c0.438-0.098,0.654-0.408,0.654-0.938c0-0.665-0.344-1.289-1.03-1.883  C78.694,56.228,77.81,55.894,76.793,55.879 M79.707,56.283l-1.492-4.303l-1.223,3.227C78.095,55.187,78.997,55.548,79.707,56.283"/>
<path fill="#FFFFFF" d="M83.251,50.973h3.195c1.594,0,2.85,0.388,3.762,1.159c0.52,0.438,0.928,0.971,1.223,1.602  c0.295,0.634,0.443,1.283,0.443,1.955c0,1.353-0.475,2.424-1.424,3.211c-0.475,0.396-1.023,0.658-1.65,0.791  c-0.414,0.082-1.029,0.121-1.854,0.121h-3.693v-0.121c0.387-0.061,0.639-0.246,0.762-0.547c0.072-0.188,0.109-0.521,0.109-0.994  v-5.416c0-0.49-0.037-0.844-0.109-1.045c-0.123-0.343-0.375-0.539-0.762-0.594L83.251,50.973L83.251,50.973z M85.601,53.004v4.46  c0,0.688,0.059,1.122,0.164,1.303c0.17,0.287,0.576,0.428,1.225,0.428c1.047,0,1.854-0.308,2.43-0.924  c0.566-0.592,0.846-1.42,0.846-2.484c0-1.172-0.316-2.147-0.949-2.932c-0.674-0.84-1.574-1.263-2.703-1.263  c-0.482,0-0.781,0.126-0.9,0.377C85.638,52.113,85.601,52.456,85.601,53.004"/>
<path fill="#FFFFFF" d="M99.384,50.814l0.604,2.7l-0.107,0.041c-0.27-0.645-0.729-1.144-1.387-1.493  c-0.586-0.313-1.26-0.471-1.998-0.471c-0.484,0-0.813,0.069-0.98,0.209c-0.17,0.137-0.254,0.445-0.254,0.922v0.766h1.033  c0.514,0,0.836-0.023,0.994-0.066c0.338-0.109,0.504-0.354,0.496-0.742l0.123-0.04l0.521,3.015l-0.105,0.037  c-0.215-0.717-0.553-1.174-1.006-1.369c-0.309-0.135-0.887-0.2-1.734-0.2h-0.322v3.6c0,0.591,0.063,0.97,0.188,1.128  c0.17,0.233,0.57,0.348,1.195,0.348c1.836,0,3.178-0.858,4.027-2.59l0.137,0.039l-1.146,3.348c-0.078-0.118-0.273-0.176-0.59-0.176  h-6.164v-0.125c0.385-0.061,0.645-0.246,0.768-0.547c0.068-0.188,0.107-0.521,0.107-0.994v-5.416c0-0.479-0.039-0.83-0.107-1.045  c-0.123-0.332-0.383-0.526-0.768-0.594v-0.121h5.75C99.024,50.973,99.267,50.92,99.384,50.814"/>
<path fill="#FFFFFF" d="M105.724,56.67l-2.715-4.769v6.149c0,0.513,0.047,0.87,0.119,1.076c0.115,0.339,0.367,0.528,0.756,0.563  v0.123h-2.621v-0.125c0.385-0.054,0.641-0.229,0.77-0.537c0.068-0.19,0.105-0.528,0.105-1.004v-5.416  c0-0.49-0.037-0.844-0.105-1.045c-0.129-0.343-0.385-0.537-0.77-0.594v-0.122h3.396v0.122c-0.152,0.035-0.227,0.124-0.227,0.27  c0,0.117,0.057,0.285,0.174,0.498l1.545,2.819l1.529-2.485c0.232-0.375,0.352-0.646,0.352-0.817c0-0.146-0.086-0.237-0.256-0.281  v-0.123h3.236v0.122c-0.389,0.063-0.641,0.248-0.75,0.553c-0.084,0.188-0.123,0.52-0.123,0.99v5.414  c0,0.493,0.039,0.844,0.123,1.049c0.109,0.328,0.361,0.529,0.75,0.59v0.123h-3.227v-0.123c0.391-0.041,0.643-0.218,0.771-0.521  c0.068-0.191,0.104-0.535,0.104-1.02v-6.248L105.724,56.67z"/>
<path fill="#FFFFFF" d="M114.399,52.656v5.396c0,0.493,0.039,0.845,0.119,1.048c0.115,0.344,0.369,0.537,0.752,0.592v0.123h-3.227  v-0.123c0.389-0.041,0.645-0.225,0.77-0.537c0.07-0.188,0.105-0.521,0.105-1.004v-5.416c0-0.491-0.035-0.845-0.105-1.045  c-0.125-0.344-0.381-0.539-0.77-0.595v-0.122h3.227v0.122c-0.383,0.063-0.637,0.248-0.752,0.554  C114.438,51.844,114.399,52.178,114.399,52.656"/>
<path fill="#FFFFFF" d="M122.754,50.814l0.607,2.7l-0.114,0.041c-0.267-0.645-0.728-1.144-1.383-1.493  c-0.587-0.313-1.259-0.471-1.999-0.471c-0.482,0-0.813,0.069-0.98,0.209c-0.172,0.137-0.254,0.445-0.254,0.922v0.766h1.031  c0.51,0,0.841-0.023,0.994-0.066c0.34-0.109,0.508-0.354,0.497-0.742l0.124-0.04l0.521,3.015l-0.107,0.037  c-0.213-0.717-0.553-1.174-1.008-1.369c-0.307-0.135-0.883-0.2-1.732-0.2h-0.318v3.6c0,0.591,0.059,0.97,0.188,1.128  c0.17,0.233,0.565,0.348,1.192,0.348c1.838,0,3.181-0.858,4.03-2.59l0.134,0.039l-1.145,3.348c-0.079-0.118-0.273-0.176-0.592-0.176  h-6.161v-0.125c0.384-0.061,0.642-0.246,0.764-0.547c0.071-0.188,0.106-0.521,0.106-0.994v-5.416c0-0.479-0.035-0.83-0.106-1.045  c-0.122-0.332-0.38-0.526-0.764-0.594v-0.121h5.749C122.395,50.973,122.635,50.92,122.754,50.814"/>
<path fill="#FFFFFF" d="M130.516,50.853l0.537,2.674l-0.104,0.027c-0.207-0.609-0.59-1.104-1.146-1.486  c-0.564-0.375-1.171-0.564-1.82-0.564c-0.403,0-0.766,0.084-1.088,0.254c-0.404,0.206-0.604,0.49-0.604,0.857  c0,0.275,0.169,0.506,0.513,0.688c0.141,0.071,0.432,0.176,0.871,0.311l1.883,0.563c0.803,0.24,1.379,0.521,1.715,0.846  c0.483,0.457,0.729,1.053,0.729,1.784c0,0.942-0.398,1.72-1.193,2.326c-0.746,0.572-1.613,0.858-2.608,0.858  c-0.341,0-0.779-0.069-1.327-0.215c-0.548-0.145-0.915-0.217-1.104-0.217c-0.16,0-0.313,0.079-0.457,0.242l-0.778-3.357l0.12-0.041  c0.25,0.821,0.671,1.485,1.263,1.986c0.63,0.549,1.358,0.82,2.19,0.82c0.72,0,1.322-0.182,1.813-0.543  c0.49-0.364,0.735-0.803,0.735-1.313c0-0.519-0.215-0.924-0.645-1.209c-0.24-0.171-0.686-0.354-1.328-0.548l-1.787-0.556  c-0.617-0.188-1.074-0.414-1.371-0.686c-0.385-0.342-0.573-0.791-0.573-1.354c0-0.732,0.345-1.305,1.03-1.707  c0.572-0.329,1.254-0.497,2.043-0.497c0.356,0,0.742,0.051,1.154,0.146c0.41,0.103,0.698,0.147,0.858,0.147  C130.223,51.095,130.383,51.017,130.516,50.853"/>
</svg>